<svg width="19" height="22" viewBox="0 0 19 22" fill="none" xmlns="http://www.w3.org/2000/svg">
<path d="M15.1698 3.47672H3.05418C2.64714 3.47672 2.316 3.17312 2.316 2.79994C2.316 2.42682 2.64714 2.12305 3.05418 2.12305H16.2677C16.9063 2.12305 17.4259 1.64692 17.4259 1.06156C17.4258 0.476245 16.9063 0 16.2677 0H3.05418C1.36998 0 0 1.25609 0 2.79989V18.8155C0 20.5715 1.5585 22 3.474 22H15.1698C17.0854 22 18.6438 20.5713 18.6438 18.8155V6.66116C18.6438 4.9054 17.0854 3.47672 15.1698 3.47672ZM14.0951 14.8115C14.0951 15.6756 13.3538 16.4405 12.301 16.5624C11.1901 16.6909 10.1874 16.0514 10.0609 15.134C9.93492 14.2165 10.733 13.369 11.8436 13.2405C12.1631 13.2032 12.4739 13.2301 12.7572 13.3087V9.7075H8.59404V15.6132C8.59404 16.4974 7.87278 17.2847 6.8019 17.4087C5.69118 17.5371 4.68822 16.8976 4.5621 15.9802C4.4358 15.0627 5.2338 14.2149 6.3447 14.0866C6.66354 14.0497 6.9732 14.0763 7.2558 14.1543V9.09425C7.2558 8.75551 7.55556 8.48116 7.9251 8.48116H13.4264C13.7959 8.48116 14.0953 8.75551 14.0953 9.09425L14.0951 14.8115Z" fill="white"/>
</svg>
