<svg width="24" height="24" viewBox="0 0 24 24" fill="none" xmlns="http://www.w3.org/2000/svg">
<path d="M12 4.86719C8.06703 4.86719 4.86719 8.06703 4.86719 12C4.86719 15.933 8.06703 19.1328 12 19.1328C15.933 19.1328 19.1328 15.933 19.1328 12C19.1328 8.06703 15.933 4.86719 12 4.86719ZM11.6801 11.3555H12.3199C13.6281 11.3555 14.6924 12.4198 14.6924 13.728C14.6924 14.9259 13.7997 15.9189 12.6445 16.0776V17.3911H11.3555V16.0776C10.2003 15.9187 9.30758 14.9259 9.30758 13.728H10.5966C10.5966 14.3253 11.0827 14.8114 11.6801 14.8114H12.3199C12.9173 14.8114 13.4034 14.3253 13.4034 13.728C13.4034 13.1306 12.9173 12.6445 12.3199 12.6445H11.6801C10.3719 12.6445 9.30758 11.5802 9.30758 10.272C9.30758 9.07409 10.2003 8.08112 11.3555 7.92235V6.60893H12.6445V7.92235C13.7997 8.08129 14.6924 9.07409 14.6924 10.272H13.4034C13.4034 9.67466 12.9173 9.18855 12.3199 9.18855H11.6801C11.0827 9.18855 10.5966 9.67466 10.5966 10.272C10.5966 10.8694 11.0827 11.3555 11.6801 11.3555Z" fill="white"/>
<path d="M19.7782 4.2218C17.7006 2.14426 14.9382 1 12 1C9.06184 1 6.29942 2.14421 4.2218 4.2218C2.14426 6.29942 1 9.06184 1 12C1 14.9382 2.14421 17.7006 4.2218 19.7782C6.29942 21.8557 9.06184 23 12 23C14.9382 23 17.7006 21.8558 19.7782 19.7782C21.8557 17.7006 23 14.9382 23 12C23 9.06184 21.8558 6.29942 19.7782 4.2218ZM12 20.4219C7.3562 20.4219 3.57812 16.6438 3.57812 12C3.57812 7.3562 7.3562 3.57812 12 3.57812C16.6438 3.57812 20.4219 7.3562 20.4219 12C20.4219 16.6438 16.6438 20.4219 12 20.4219Z" fill="white"/>
</svg>
