<svg width="24" height="24" viewBox="0 0 24 24" fill="none" xmlns="http://www.w3.org/2000/svg">
<path d="M11.0235 3.62703V4.14931C11.7482 4.10023 12.1362 4.15902 12.1765 4.16558C12.2913 4.18433 12.3999 4.2308 12.4927 4.30096C12.5856 4.37112 12.6599 4.46286 12.7093 4.56823L13.7278 6.73878C13.855 6.76812 13.9718 6.83184 14.0654 6.923C14.1883 7.04272 14.3353 7.13647 14.5019 7.17711C14.8347 7.2582 15.1647 7.16577 15.398 6.93889C15.6388 6.70489 16.0062 6.64541 16.2899 6.82484C16.6957 7.08116 16.7393 7.62425 16.421 7.94248C15.9721 8.39164 15.375 8.63905 14.7398 8.63905C14.6991 8.63901 14.6583 8.63796 14.6177 8.63591L15.9867 11.5541C16.0443 11.6767 16.0992 11.8006 16.1513 11.9256C17.6929 11.4395 19.4463 11.8005 20.6715 13.0118C20.9454 13.2824 20.9758 13.7244 20.7198 14.0123C20.6526 14.0882 20.5701 14.149 20.4776 14.1905C20.3851 14.2321 20.2849 14.2535 20.1835 14.2534C20.0002 14.2534 19.8168 14.1835 19.677 14.0436C18.8466 13.2134 17.6545 12.9609 16.6034 13.2848C17.0021 14.8741 16.9755 16.5144 16.5641 18.0525C16.7589 18.1169 16.9561 18.174 17.1553 18.2235C17.3878 18.2814 17.6309 18.2816 17.8636 18.2242C21.4464 17.338 23.9978 14.1159 23.9978 10.3829V3.62703C23.9978 3.29248 23.7913 2.99258 23.4781 2.87483C22.4914 2.50409 20.5843 2 17.5109 2C14.4373 2 12.53 2.50428 11.5431 2.87506C11.23 2.99262 11.0234 3.29253 11.0234 3.62708L11.0235 3.62703ZM18.944 6.92938C19.2239 6.64958 19.6774 6.64958 19.9574 6.92938C20.0449 7.01736 20.1489 7.08712 20.2636 7.13462C20.3782 7.18211 20.5011 7.2064 20.6252 7.20608C20.7493 7.2064 20.8722 7.18211 20.9869 7.13462C21.1015 7.08712 21.2056 7.01736 21.2931 6.92938C21.5729 6.64944 22.0266 6.64944 22.3064 6.92938C22.5862 7.20917 22.5862 7.66273 22.3064 7.94248C21.8573 8.39164 21.2604 8.63905 20.6252 8.63905C19.9902 8.63905 19.3931 8.39164 18.9439 7.94248C18.6643 7.66273 18.6643 7.20917 18.944 6.92938Z" fill="white"/>
<path d="M14.6918 12.1627L11.807 6.01402C11.6742 5.7309 11.3801 5.56046 11.0683 5.58408C10.0266 5.66283 8.0727 6.0083 5.25837 7.32873C2.47569 8.63424 0.963218 9.90076 0.227375 10.6555C-0.00606291 10.8951 -0.0657817 11.2543 0.0762965 11.5572L2.94575 17.6734C4.53125 21.0528 8.21 22.8863 11.8302 22.1667C12.0642 22.1202 12.2833 22.0174 12.4685 21.8671C15.3359 19.5431 16.2773 15.5423 14.6918 12.1627ZM8.89428 11.7044C9.33978 10.4714 10.7054 9.83049 11.9384 10.2762C12.3105 10.4106 12.5031 10.8213 12.3687 11.1935C12.2343 11.5656 11.8236 11.7584 11.4514 11.6238C10.9615 11.4469 10.419 11.7015 10.242 12.1913C10.1365 12.4831 9.86145 12.6646 9.56811 12.6646C9.4872 12.6646 9.40498 12.6509 9.32459 12.6218C8.9525 12.4872 8.7597 12.0765 8.89428 11.7044V11.7044ZM6.12336 14.1236C6.00674 14.0811 5.88284 14.0621 5.75885 14.0679C5.63486 14.0736 5.51323 14.1038 5.40102 14.1569C5.28854 14.2093 5.18757 14.2835 5.10396 14.3751C5.02035 14.4668 4.95577 14.5742 4.91394 14.691C4.80847 14.9829 4.53327 15.1644 4.23992 15.1644C4.15916 15.1644 4.07698 15.1504 3.99659 15.1215C3.62431 14.9871 3.4317 14.5764 3.56609 14.2042C3.782 13.6068 4.21742 13.1293 4.79234 12.8596C5.3675 12.5899 6.01297 12.5601 6.61025 12.7759C6.98244 12.9103 7.17509 13.321 7.0407 13.6933C6.90612 14.0654 6.49541 14.258 6.12336 14.1236ZM8.52917 18.8071C8.00959 18.8069 7.49401 18.7163 7.00555 18.5392C6.63331 18.4048 6.4407 17.9941 6.57509 17.6218C6.70962 17.2497 7.12016 17.0569 7.49244 17.1915C9.08122 17.7655 10.8409 16.9399 11.4149 15.3513C11.5493 14.9791 11.96 14.7864 12.3323 14.9208C12.7043 15.0554 12.897 15.4661 12.7626 15.8384C12.1017 17.667 10.3703 18.8071 8.52917 18.8071Z" fill="white"/>
</svg>
