<svg width="24" height="24" viewBox="0 0 24 24" fill="none" xmlns="http://www.w3.org/2000/svg">
<path d="M12 6.125C12.9665 6.125 13.75 5.3415 13.75 4.375C13.75 3.4085 12.9665 2.625 12 2.625C11.0335 2.625 10.25 3.4085 10.25 4.375C10.25 5.3415 11.0335 6.125 12 6.125Z" fill="white"/>
<path d="M21 9.125C21.9665 9.125 22.75 8.3415 22.75 7.375C22.75 6.4085 21.9665 5.625 21 5.625C20.0335 5.625 19.25 6.4085 19.25 7.375C19.25 8.3415 20.0335 9.125 21 9.125Z" fill="white"/>
<path d="M3 9.125C3.9665 9.125 4.75 8.3415 4.75 7.375C4.75 6.4085 3.9665 5.625 3 5.625C2.0335 5.625 1.25 6.4085 1.25 7.375C1.25 8.3415 2.0335 9.125 3 9.125Z" fill="white"/>
<path fill-rule="evenodd" clip-rule="evenodd" d="M21.2346 8.521C21.2655 8.36614 21.2468 8.20545 21.1811 8.06185C21.1154 7.91824 21.0061 7.79904 20.8686 7.72123C20.7312 7.64343 20.5727 7.61099 20.4158 7.62855C20.2588 7.6461 20.1114 7.71275 19.9946 7.819L17.7686 9.843C17.4967 10.0901 17.1684 10.2668 16.8125 10.3578C16.4566 10.4488 16.0838 10.4513 15.7267 10.3649C15.3696 10.2786 15.039 10.1062 14.7639 9.86267C14.4888 9.61916 14.2776 9.31199 14.1486 8.968L12.7016 5.111C12.6479 4.96821 12.5519 4.84519 12.4265 4.75836C12.301 4.67152 12.1521 4.625 11.9996 4.625C11.847 4.625 11.6981 4.67152 11.5727 4.75836C11.4472 4.84519 11.3513 4.96821 11.2976 5.111L9.85057 8.968C9.72195 9.31232 9.51087 9.61985 9.23581 9.86366C8.96076 10.1075 8.63011 10.2801 8.27284 10.3665C7.91558 10.4528 7.54258 10.4503 7.18653 10.359C6.83049 10.2677 6.50225 10.0906 6.23057 9.843L4.00457 7.819C3.88772 7.71275 3.74032 7.6461 3.58337 7.62855C3.42642 7.61099 3.26794 7.64343 3.13051 7.72123C2.99307 7.79904 2.88371 7.91824 2.818 8.06185C2.75229 8.20545 2.73359 8.36614 2.76457 8.521L4.44257 16.913C4.56719 17.5365 4.90404 18.0976 5.39576 18.5007C5.88749 18.9038 6.50372 19.1241 7.13957 19.124H16.8596C17.4954 19.1241 18.1116 18.9038 18.6034 18.5007C19.0951 18.0976 19.4319 17.5365 19.5566 16.913L21.2346 8.521ZM17.9996 20.624H5.99957C5.80066 20.624 5.60989 20.703 5.46924 20.8437C5.32859 20.9843 5.24957 21.1751 5.24957 21.374C5.24957 21.5729 5.32859 21.7637 5.46924 21.9043C5.60989 22.045 5.80066 22.124 5.99957 22.124H17.9996C18.1985 22.124 18.3892 22.045 18.5299 21.9043C18.6705 21.7637 18.7496 21.5729 18.7496 21.374C18.7496 21.1751 18.6705 20.9843 18.5299 20.8437C18.3892 20.703 18.1985 20.624 17.9996 20.624Z" fill="white"/>
</svg>
