<svg width="24" height="24" viewBox="0 0 24 24" fill="none" xmlns="http://www.w3.org/2000/svg">
<path d="M18.9192 9.89844H1.97656V21.8039L7.27795 21.8532V15.811C7.27795 15.5997 7.46306 15.4731 7.67446 15.4731H13.5059C13.7171 15.4731 13.8915 15.5997 13.8915 15.811V21.9143L15.6951 21.9312V14.6095C15.6969 14.3939 15.7419 14.1809 15.8275 13.983C15.9131 13.7852 16.0375 13.6065 16.1934 13.4575L18.9192 10.8451L18.9192 9.89844Z" fill="white"/>
<path d="M8.04101 21.8612L13.1238 21.9082V16.2391H8.04101V21.8612ZM21.0759 9.13419L10.5556 0L0.0078125 9.13419H21.0759ZM20.6045 11.3741C20.2832 11.0631 19.7732 11.0631 19.4517 11.3741L16.7105 14.0099C16.6302 14.0879 16.5665 14.1813 16.523 14.2845C16.4796 14.3876 16.4574 14.4985 16.4577 14.6104V20.9393H23.6173V14.6104C23.6158 14.4979 23.5917 14.3868 23.5466 14.2837C23.5014 14.1806 23.4361 14.0876 23.3545 14.0101L20.6045 11.3741ZM19.9308 16.67C19.1144 16.67 18.4528 16.0079 18.4528 15.1915C18.453 14.3751 19.1148 13.7133 19.9312 13.7136C20.7476 13.7136 21.4094 14.3754 21.4094 15.1918C21.4085 16.0079 20.747 16.6693 19.9308 16.6701V16.67Z" fill="white"/>
<path d="M19.9341 14.4805C19.5404 14.4807 19.2212 14.8001 19.2212 15.1937C19.2214 15.5876 19.5406 15.9068 19.9344 15.9068C20.3283 15.9066 20.6475 15.5874 20.6475 15.1935C20.6471 14.7999 20.3279 14.4807 19.9341 14.4805ZM16.4609 23.1309C16.4609 23.5899 16.8286 24.0017 17.2878 24.0017H22.7734C23.2327 24.0017 23.6205 23.5899 23.6205 23.1309V21.7063H16.4609V23.1309Z" fill="white"/>
</svg>
