<svg width="20" height="20" viewBox="0 0 20 20" fill="none" xmlns="http://www.w3.org/2000/svg">
<g clip-path="url(#clip0_443_899)">
<path d="M18.3037 10.0332V17.5083C18.3037 17.9668 17.9316 18.3389 17.4732 18.3389H2.52297C2.06449 18.3389 1.69242 17.9668 1.69242 17.5083L1.69242 10.0332C1.69242 9.57391 1.32117 9.20266 0.861875 9.20266C0.402578 9.20266 0.03125 9.57391 0.03125 10.0332L0.03125 17.5083C0.03125 18.8821 1.14922 20 2.52297 20H17.4731C18.8469 20 19.9648 18.8821 19.9648 17.5083V10.0332C19.9648 9.57391 19.5936 9.20266 19.1343 9.20266C18.675 9.20266 18.3037 9.57391 18.3037 10.0332Z" fill="white"/>
<path d="M9.40611 0.2475L4.42271 5.29734C4.10044 5.62293 4.10462 6.14949 4.43103 6.47176C4.75743 6.79402 5.28318 6.7907 5.60544 6.46344L9.16689 2.85465V12.5249C9.16689 12.9842 9.53814 13.3555 9.99743 13.3555C10.4567 13.3555 10.828 12.9842 10.828 12.5249V2.85465L14.3895 6.46344C14.7117 6.79066 15.2375 6.79316 15.5639 6.47176C15.6423 6.39451 15.7045 6.30245 15.747 6.20093C15.7895 6.0994 15.8114 5.99045 15.8114 5.88039C15.8114 5.66941 15.7317 5.45848 15.5722 5.29734L10.5888 0.2475C10.5115 0.169195 10.4194 0.107 10.3179 0.064518C10.2164 0.0220346 10.1074 0.000105858 9.9974 0C9.7749 0 9.5631 0.0888672 9.40611 0.2475Z" fill="white"/>
</g>
<defs>
<clipPath id="clip0_443_899">
<rect width="20" height="20" fill="white" transform="matrix(0 -1 1 0 0 20)"/>
</clipPath>
</defs>
</svg>
