<svg width="24" height="24" viewBox="0 0 24 24" fill="none" xmlns="http://www.w3.org/2000/svg">
<g clip-path="url(#clip0_443_6153)">
<path d="M20.4954 0.985657C20.4954 0.441293 20.0541 0 19.5098 0H0.985657C0.441293 0 0 0.441293 0 0.985657V19.5098C0 20.0541 0.441293 20.4954 0.985657 20.4954C1.53002 20.4954 1.97131 20.0541 1.97131 19.5098V1.97131H19.5098C20.0541 1.97131 20.4954 1.53002 20.4954 0.985657Z" fill="white"/>
<path d="M23.0175 3.50391H4.49347C3.94911 3.50391 3.50781 3.9452 3.50781 4.48956V23.0137C3.50781 23.558 3.94911 23.9993 4.49347 23.9993H23.0176C23.5619 23.9993 24.0032 23.558 24.0032 23.0137V4.48956C24.0032 3.9452 23.5619 3.50391 23.0175 3.50391ZM17.8914 11.9395C17.6479 12.4264 17.0558 12.6236 16.5689 12.3803L14.9915 11.5916V16.0045C14.9915 17.6523 13.651 18.9928 12.0032 18.9928C10.3555 18.9928 9.01496 17.6523 9.01496 16.0045C9.01496 14.3568 10.3555 13.0163 12.0032 13.0163H13.0202V9.99671C13.0202 9.26418 13.7924 8.78811 14.4467 9.11511L17.4506 10.6171C17.9375 10.8605 18.1348 11.4526 17.8914 11.9395Z" fill="white"/>
</g>
<defs>
<clipPath id="clip0_443_6153">
<rect width="24" height="24" fill="white"/>
</clipPath>
</defs>
</svg>
