<svg width="24" height="24" viewBox="0 0 24 24" fill="none" xmlns="http://www.w3.org/2000/svg">
<path fill-rule="evenodd" clip-rule="evenodd" d="M18.0478 9.57525H9.15663V6.56705C9.15663 5.00442 10.4351 3.72595 11.9977 3.72595C13.2812 3.72595 14.3731 4.58855 14.7221 5.76267C14.9901 6.66408 16.1774 6.84928 16.7255 6.11498C16.9448 5.82113 17.0068 5.47364 16.9025 5.12213C16.2752 3.00722 14.3091 1.45312 11.9977 1.45312C9.18503 1.45312 6.88375 3.75441 6.88375 6.56709V9.57525H5.94761C4.91509 9.57525 4.07031 10.42 4.07031 11.4525V20.6696C4.07031 21.7021 4.91509 22.5469 5.94761 22.5469H18.0478C19.0803 22.5469 19.9251 21.7021 19.9251 20.6696V11.4525C19.9251 10.42 19.0803 9.57525 18.0478 9.57525ZM12.7009 16.0695V18.4473C12.7009 18.8356 12.3861 19.1505 11.9978 19.1505C11.6095 19.1505 11.2946 18.8356 11.2946 18.4473V16.0695C10.7472 15.807 10.3692 15.2477 10.3692 14.6002C10.3692 13.7008 11.0983 12.9716 11.9978 12.9716C12.8972 12.9716 13.6263 13.7008 13.6263 14.6002C13.6263 15.2478 13.2483 15.807 12.7009 16.0695Z" fill="white"/>
</svg>
