<svg width="24" height="24" viewBox="0 0 24 24" fill="none" xmlns="http://www.w3.org/2000/svg">
<g clip-path="url(#clip0_453_23319)">
<path fill-rule="evenodd" clip-rule="evenodd" d="M0 9.74848C0 10.09 0.218605 10.394 0.546512 10.5079C1.50072 10.8397 2.18605 11.7355 2.18605 12.787C2.18605 13.8386 1.50072 14.7343 0.546512 15.0662C0.386702 15.1217 0.248337 15.2246 0.150464 15.3606C0.0525911 15.4966 2.41337e-05 15.659 0 15.8256V17.6204C0 18.659 0.85693 19.5 1.91279 19.5H21.5872C22.0945 19.5 22.581 19.302 22.9398 18.9495C23.2985 18.597 23.5 18.1189 23.5 17.6204V15.8256C23.5 15.659 23.4474 15.4966 23.3495 15.3606C23.2517 15.2246 23.1133 15.1217 22.9535 15.0662C21.9993 14.7343 21.314 13.8386 21.314 12.787C21.314 11.7355 21.9993 10.8397 22.9535 10.5079C23.1133 10.4523 23.2517 10.3495 23.3495 10.2135C23.4474 10.0775 23.5 9.91505 23.5 9.74848V6.87963C23.5 6.38112 23.2985 5.90303 22.9398 5.55053C22.581 5.19803 22.0945 5 21.5872 5H1.91279C1.40549 5 0.918961 5.19803 0.560243 5.55053C0.201526 5.90303 0 6.38112 0 6.87963V9.74848ZM15.8685 13.5561C15.6392 13.3303 15.3468 13.1765 15.0285 13.1141C14.7102 13.0517 14.3802 13.0835 14.0802 13.2054C13.7803 13.3274 13.5239 13.534 13.3435 13.7992C13.1631 14.0644 13.0668 14.3762 13.0668 14.6951C13.0668 15.0141 13.1631 15.3259 13.3435 15.5911C13.5239 15.8563 13.7803 16.0629 14.0802 16.1848C14.3802 16.3068 14.7102 16.3386 15.0285 16.2761C15.3468 16.2137 15.6392 16.0599 15.8685 15.8342C16.1756 15.5319 16.3481 15.1223 16.3481 14.6951C16.3481 14.268 16.1756 13.8583 15.8685 13.5561ZM14.4498 8.45852L7.89163 14.903C7.81555 14.9777 7.75521 15.0665 7.71404 15.1641C7.67286 15.2618 7.65167 15.3665 7.65167 15.4722C7.65167 15.5779 7.67286 15.6826 7.71404 15.7803C7.75521 15.878 7.81555 15.9667 7.89163 16.0415C7.9677 16.1162 8.05802 16.1755 8.15741 16.216C8.25681 16.2565 8.36334 16.2773 8.47093 16.2773C8.57852 16.2773 8.68505 16.2565 8.78445 16.216C8.88384 16.1755 8.97416 16.1162 9.05023 16.0415L15.6084 9.59704C15.6844 9.52228 15.7448 9.43353 15.786 9.33586C15.8271 9.23818 15.8483 9.1335 15.8483 9.02778C15.8483 8.92206 15.8271 8.81737 15.786 8.7197C15.7448 8.62202 15.6844 8.53327 15.6084 8.45852C15.5323 8.38376 15.442 8.32446 15.3426 8.284C15.2432 8.24355 15.1367 8.22272 15.0291 8.22272C14.9215 8.22272 14.815 8.24355 14.7156 8.284C14.6162 8.32446 14.5258 8.38376 14.4498 8.45852ZM9.95088 8.83122C9.79859 8.68157 9.61779 8.56286 9.41881 8.48186C9.21983 8.40087 9.00656 8.35919 8.79119 8.35919C8.57581 8.35919 8.36254 8.40087 8.16356 8.48186C7.96458 8.56286 7.78378 8.68157 7.63149 8.83122C7.4792 8.98088 7.35839 9.15854 7.27597 9.35407C7.19355 9.5496 7.15113 9.75917 7.15113 9.97081C7.15113 10.1825 7.19355 10.392 7.27597 10.5876C7.35839 10.7831 7.4792 10.9608 7.63149 11.1104C7.93906 11.4126 8.35622 11.5824 8.79119 11.5824C9.22616 11.5824 9.64331 11.4126 9.95088 11.1104C10.2585 10.8082 10.4312 10.3982 10.4312 9.97081C10.4312 9.54338 10.2585 9.13346 9.95088 8.83122Z" fill="white"/>
</g>
<defs>
<clipPath id="clip0_453_23319">
<rect width="24" height="24" fill="white"/>
</clipPath>
</defs>
</svg>
