<svg width="22" height="22" viewBox="0 0 22 22" fill="none" xmlns="http://www.w3.org/2000/svg">
<path fill-rule="evenodd" clip-rule="evenodd" d="M4.7205 4.72229C4.92678 4.51607 5.20652 4.40023 5.4982 4.40023C5.78988 4.40023 6.06962 4.51607 6.2759 4.72229L10.9982 9.44459L15.7205 4.72229C15.822 4.61723 15.9434 4.53343 16.0776 4.47578C16.2118 4.41813 16.3561 4.38779 16.5022 4.38652C16.6482 4.38525 16.7931 4.41308 16.9283 4.46839C17.0634 4.5237 17.1863 4.60537 17.2895 4.70866C17.3928 4.81194 17.4745 4.93476 17.5298 5.06994C17.5851 5.20513 17.6129 5.34998 17.6117 5.49603C17.6104 5.64209 17.5801 5.78643 17.5224 5.92064C17.4648 6.05484 17.381 6.17622 17.2759 6.27769L12.5536 11L17.2759 15.7223C17.4763 15.9298 17.5872 16.2076 17.5846 16.496C17.5821 16.7844 17.4665 17.0603 17.2625 17.2643C17.0586 17.4682 16.7827 17.5839 16.4942 17.5864C16.2058 17.5889 15.928 17.4781 15.7205 17.2777L10.9982 12.5554L6.2759 17.2777C6.06844 17.4781 5.79058 17.5889 5.50216 17.5864C5.21374 17.5839 4.93785 17.4682 4.7339 17.2643C4.52995 17.0603 4.41427 16.7844 4.41176 16.496C4.40925 16.2076 4.52013 15.9298 4.7205 15.7223L9.4428 11L4.7205 6.27769C4.51428 6.07141 4.39844 5.79167 4.39844 5.49999C4.39844 5.20831 4.51428 4.92857 4.7205 4.72229Z" fill="white"/>
</svg>
