<svg width="24" height="24" viewBox="0 0 24 24" fill="none" xmlns="http://www.w3.org/2000/svg">
<g clip-path="url(#clip0_453_23348)">
<path d="M12 14C13.6569 14 15 12.6569 15 11C15 9.34315 13.6569 8 12 8C10.3431 8 9 9.34315 9 11C9 12.6569 10.3431 14 12 14Z" fill="white"/>
<path d="M15 16H9C8.46957 16 7.96086 16.2107 7.58579 16.5858C7.21071 16.9609 7 17.4696 7 18V22H17V18C17 17.4696 16.7893 16.9609 16.4142 16.5858C16.0391 16.2107 15.5304 16 15 16ZM22 12H16.384C16.1497 12.9882 15.5896 13.8688 14.794 14.5H15C16.93 14.5 18.5 16.07 18.5 18H24V14C24 13.4696 23.7893 12.9609 23.4142 12.5858C23.0391 12.2107 22.5304 12 22 12ZM9.207 14.5C8.41135 13.8688 7.85129 12.9882 7.617 12H2C1.46957 12 0.960859 12.2107 0.585786 12.5858C0.210714 12.9609 0 13.4696 0 14L0 18H5.5C5.5 16.07 7.07 14.5 9 14.5H9.207Z" fill="white"/>
<path d="M5 10C6.65685 10 8 8.65685 8 7C8 5.34315 6.65685 4 5 4C3.34315 4 2 5.34315 2 7C2 8.65685 3.34315 10 5 10Z" fill="white"/>
<path d="M19 10C20.6569 10 22 8.65685 22 7C22 5.34315 20.6569 4 19 4C17.3431 4 16 5.34315 16 7C16 8.65685 17.3431 10 19 10Z" fill="white"/>
</g>
<defs>
<clipPath id="clip0_453_23348">
<rect width="24" height="24" fill="white"/>
</clipPath>
</defs>
</svg>
