<svg width="52" height="52" viewBox="0 0 52 52" fill="none" xmlns="http://www.w3.org/2000/svg">
<rect width="52" height="52" rx="4" transform="matrix(-1 0 0 1 52 0)" fill="#A92D33"/>
<path d="M38.9991 36.114H12.9991C12.616 36.114 12.2486 36.2662 11.9778 36.5371C11.7069 36.808 11.5547 37.1754 11.5547 37.5585C11.5547 37.9416 11.7069 38.309 11.9778 38.5799C12.2486 38.8507 12.616 39.0029 12.9991 39.0029H38.9991C39.3822 39.0029 39.7496 38.8507 40.0205 38.5799C40.2914 38.309 40.4436 37.9416 40.4436 37.5585C40.4436 37.1754 40.2914 36.808 40.0205 36.5371C39.7496 36.2662 39.3822 36.114 38.9991 36.114ZM25.9991 11.5585C25.616 11.5585 25.2486 11.7107 24.9778 11.9815C24.7069 12.2524 24.5547 12.6198 24.5547 13.0029V28.2996L19.8025 23.5329C19.5305 23.2609 19.1616 23.1081 18.7769 23.1081C18.3923 23.1081 18.0233 23.2609 17.7514 23.5329C17.4794 23.8049 17.3266 24.1738 17.3266 24.5585C17.3266 24.9431 17.4794 25.312 17.7514 25.584L24.9736 32.8062C25.1079 32.9416 25.2676 33.0491 25.4436 33.1224C25.6197 33.1958 25.8084 33.2335 25.9991 33.2335C26.1898 33.2335 26.3786 33.1958 26.5546 33.1224C26.7307 33.0491 26.8904 32.9416 27.0247 32.8062L34.2469 25.584C34.3816 25.4494 34.4884 25.2895 34.5613 25.1135C34.6342 24.9375 34.6717 24.7489 34.6717 24.5585C34.6717 24.368 34.6342 24.1794 34.5613 24.0034C34.4884 23.8275 34.3816 23.6676 34.2469 23.5329C34.1122 23.3982 33.9523 23.2914 33.7764 23.2185C33.6004 23.1456 33.4118 23.1081 33.2214 23.1081C33.0309 23.1081 32.8423 23.1456 32.6663 23.2185C32.4904 23.2914 32.3305 23.3982 32.1958 23.5329L27.4436 28.2996V13.0029C27.4436 12.6198 27.2914 12.2524 27.0205 11.9815C26.7496 11.7107 26.3822 11.5585 25.9991 11.5585Z" fill="white"/>
</svg>
