<svg width="24" height="24" viewBox="0 0 24 24" fill="none" xmlns="http://www.w3.org/2000/svg">
<g clip-path="url(#clip0_443_6116)">
<path d="M21.7906 0.753906H8.23439C6.9997 0.753906 6.02503 1.75666 6.02503 2.96327V8.98825C6.02503 10.22 7.02464 11.1976 8.23439 11.1976H21.7906C23.0253 11.1976 24 10.1949 24 8.98825V2.96327C24 1.73148 23.0004 0.753906 21.7906 0.753906ZM17.2719 8.18514H9.74063C8.8087 8.15055 8.80941 6.81316 9.74063 6.77889H17.2719C18.2038 6.81349 18.2031 8.15088 17.2719 8.18514ZM20.2844 5.17267H9.74063C8.8087 5.13808 8.80941 3.80069 9.74063 3.76642H20.2844C21.2163 3.80097 21.2156 5.13841 20.2844 5.17267ZM4.41877 16.8961C4.30772 13.9694 0.110578 13.9697 0 16.8953C0.0349219 17.8273 1.37203 17.8265 1.40625 16.8953C1.40625 16.4529 1.7662 16.093 2.20936 16.093C2.65219 16.093 3.01247 16.4532 3.01247 16.8961C3.01288 17.0425 2.98423 17.1876 2.92819 17.323C2.87215 17.4583 2.78983 17.5812 2.68598 17.6845L0.205969 20.1645C0.107676 20.2629 0.0407454 20.3881 0.0136365 20.5245C-0.0134725 20.6609 0.000457022 20.8023 0.0536645 20.9307C0.106872 21.0592 0.196969 21.169 0.312568 21.2463C0.428167 21.3235 0.564079 21.3648 0.703125 21.3648H3.71564C4.64756 21.3303 4.64686 19.9929 3.71564 19.9586H2.40066L3.68039 18.6789C4.15655 18.2027 4.41877 17.5695 4.41877 16.8961ZM0.703125 7.90858C-0.228797 7.94317 -0.228094 9.28056 0.703125 9.31483H3.71564C4.64756 9.28024 4.64686 7.94284 3.71564 7.90858H2.91248V3.33981C2.91248 3.20075 2.87124 3.0648 2.79398 2.94918C2.71672 2.83355 2.6069 2.74343 2.47842 2.69021C2.34994 2.637 2.20856 2.62308 2.07216 2.65021C1.93577 2.67735 1.81049 2.74432 1.71216 2.84266L0.205969 4.34889C-0.068625 4.62348 -0.068625 5.06866 0.205969 5.34325C0.480516 5.61784 0.925734 5.61784 1.20033 5.34325L1.50628 5.03734V7.90858H0.703125ZM21.7906 12.8039H8.23439C6.9997 12.8039 6.02503 13.8066 6.02503 15.0132V21.0383C6.02503 22.27 7.02464 23.2476 8.23439 23.2476H21.7906C23.0253 23.2476 24 22.2449 24 21.0383V15.0133C24 13.7815 23.0004 12.8039 21.7906 12.8039ZM17.2719 20.2352H9.74063C8.8087 20.2006 8.80941 18.8632 9.74063 18.8289H17.2719C18.2038 18.8635 18.2031 20.2009 17.2719 20.2352ZM20.2844 17.2226H9.74063C8.8087 17.188 8.80941 15.8507 9.74063 15.8164H20.2844C21.2163 15.851 21.2156 17.1884 20.2844 17.2226Z" fill="white"/>
</g>
<defs>
<clipPath id="clip0_443_6116">
<rect width="24" height="24" fill="white"/>
</clipPath>
</defs>
</svg>
