<svg width="52" height="52" viewBox="0 0 52 52" fill="none" xmlns="http://www.w3.org/2000/svg">
<rect opacity="0.8" width="52" height="52" rx="4" fill="#079FA7"/>
<g clip-path="url(#clip0_443_18014)">
<path d="M26.0009 20.4218C22.9228 20.4218 20.4219 22.9227 20.4219 26.0007C20.4219 29.0788 22.9228 31.5797 26.0009 31.5797C29.0789 31.5797 31.5798 29.0788 31.5798 26.0007C31.5798 22.9227 29.0789 20.4218 26.0009 20.4218ZM25.5776 24.3463C24.8851 24.3463 24.3079 24.9234 24.3079 25.616H22.4611C22.4996 23.8846 23.8847 22.4994 25.5776 22.4994V24.3463Z" fill="white"/>
<path d="M42.9267 24.8473C41.0414 22.5003 34.3082 14.8436 25.9974 14.8436C17.6866 14.8436 10.9534 22.5003 9.06806 24.8473C8.5294 25.5014 8.5294 26.4633 9.06806 27.1559C10.9534 29.5029 17.6866 37.1596 25.9974 37.1596C34.3082 37.1596 41.0414 29.5029 42.9267 27.1559C43.4654 26.5018 43.4654 25.5399 42.9267 24.8473ZM25.9974 34.0815C21.5342 34.0815 17.9175 30.4648 17.9175 26.0016C17.9175 21.5384 21.5342 17.9217 25.9974 17.9217C30.4606 17.9217 34.0773 21.5384 34.0773 26.0016C34.0773 30.4648 30.4606 34.0815 25.9974 34.0815Z" fill="white"/>
</g>
<defs>
<clipPath id="clip0_443_18014">
<rect width="34.6667" height="34.6667" fill="white" transform="translate(8.66406 8.66785)"/>
</clipPath>
</defs>
</svg>
