<svg width="24" height="24" viewBox="0 0 24 24" fill="none" xmlns="http://www.w3.org/2000/svg">
<g clip-path="url(#clip0_443_6177)">
<path d="M18.7202 1.27734H11.3514C10.8846 1.2775 10.4371 1.46298 10.1071 1.793L0.515441 11.3829C-0.171814 12.0701 -0.171814 13.1842 0.515441 13.8723L7.88428 21.2412C8.57154 21.9284 9.68558 21.9284 10.3728 21.2412L19.9645 11.6513C20.2945 11.3204 20.4801 10.8725 20.4801 10.4052V3.03728C20.4801 2.06491 19.6926 1.27734 18.7202 1.27734ZM15.6403 7.43711C14.9117 7.43711 14.3204 6.84577 14.3204 6.11716C14.3204 5.38855 14.9117 4.79721 15.6403 4.79721C16.3689 4.79721 16.9603 5.38855 16.9603 6.11716C16.9603 6.84577 16.3689 7.43711 15.6403 7.43711Z" fill="white"/>
<path d="M22.2431 3.03906L22.2422 11.2307C22.2422 11.4317 22.2026 11.6308 22.1256 11.8166C22.0486 12.0023 21.9357 12.171 21.7934 12.313L12.0469 22.0595L12.1965 22.2091C12.8837 22.8964 13.9978 22.8964 14.685 22.2091L23.4864 13.4095C23.6501 13.2462 23.78 13.0523 23.8687 12.8388C23.9573 12.6253 24.0029 12.3964 24.003 12.1652V4.799C24.003 3.82663 23.2154 3.03906 22.2431 3.03906Z" fill="white"/>
</g>
<defs>
<clipPath id="clip0_443_6177">
<rect width="24" height="24" fill="white"/>
</clipPath>
</defs>
</svg>
