<svg width="20" height="20" viewBox="0 0 20 20" fill="none" xmlns="http://www.w3.org/2000/svg">
<path d="M17.0833 7.5H15.8333V5.83332C15.8333 2.6168 13.2166 0 10 0C6.78344 0 4.16668 2.6168 4.16668 5.83332V7.5H2.91668C2.86195 7.49996 2.80775 7.51072 2.75718 7.53164C2.70661 7.55257 2.66066 7.58326 2.62196 7.62196C2.58326 7.66066 2.55257 7.70661 2.53164 7.75718C2.51072 7.80775 2.49996 7.86195 2.5 7.91668V18.3334C2.5 19.2525 3.24746 20 4.16668 20H15.8334C16.7525 20 17.5 19.2525 17.5 18.3333V7.91668C17.5 7.86195 17.4893 7.80775 17.4684 7.75718C17.4474 7.70661 17.4167 7.66066 17.378 7.62196C17.3393 7.58326 17.2934 7.55257 17.2428 7.53164C17.1922 7.51072 17.1381 7.49996 17.0833 7.5ZM11.2476 16.204C11.254 16.2623 11.2481 16.3212 11.2302 16.377C11.2124 16.4328 11.1829 16.4842 11.1438 16.5279C11.1048 16.5716 11.0569 16.6065 11.0034 16.6304C10.9499 16.6543 10.892 16.6667 10.8334 16.6667H9.16668C9.10808 16.6667 9.05014 16.6543 8.99664 16.6304C8.94314 16.6065 8.89529 16.5716 8.8562 16.5279C8.81711 16.4842 8.78767 16.4328 8.7698 16.377C8.75192 16.3212 8.74601 16.2623 8.75246 16.204L9.01531 13.8404C8.58848 13.5299 8.33336 13.0387 8.33336 12.5C8.33336 11.5808 9.08082 10.8333 10 10.8333C10.9193 10.8333 11.6667 11.5808 11.6667 12.5C11.6667 13.0387 11.4116 13.5299 10.9848 13.8404L11.2476 16.204ZM13.3333 7.5H6.66668V5.83332C6.66668 3.99535 8.16203 2.5 10 2.5C11.838 2.5 13.3333 3.99535 13.3333 5.83332V7.5Z" fill="white"/>
</svg>
