<svg width="18" height="18" viewBox="0 0 18 18" fill="none" xmlns="http://www.w3.org/2000/svg">
<path d="M10.845 2.445L11.505 1.785C12.285 1.005 13.6425 1.005 14.4225 1.785L14.955 2.3175C15.1471 2.50799 15.2996 2.73464 15.4037 2.98436C15.5077 3.23409 15.5613 3.50196 15.5613 3.7725C15.5613 4.04304 15.5077 4.31091 15.4037 4.56063C15.2996 4.81036 15.1471 5.03701 14.955 5.2275L14.295 5.8875L10.845 2.4375V2.445ZM10.05 3.24L3.2175 10.0725C3 10.29 2.865 10.575 2.8425 10.8825L2.64 13.08C2.6175 13.3575 2.715 13.6275 2.91 13.83C3.09 14.01 3.3225 14.1075 3.57 14.1075H3.6525L5.85 13.905C6.1575 13.875 6.4425 13.74 6.66 13.5225L13.4925 6.69L10.0425 3.24H10.05ZM17.0625 16.5C17.0625 16.1925 16.8075 15.9375 16.5 15.9375H1.5C1.1925 15.9375 0.9375 16.1925 0.9375 16.5C0.9375 16.8075 1.1925 17.0625 1.5 17.0625H16.5C16.8075 17.0625 17.0625 16.8075 17.0625 16.5Z" fill="black"/>
</svg>
