<svg width="52" height="52" viewBox="0 0 52 52" fill="none" xmlns="http://www.w3.org/2000/svg">
<rect width="52" height="52" rx="4" transform="matrix(-1 0 0 1 52 0)" fill="#17904B"/>
<path d="M18.5843 16.601C18.5843 12.4906 21.9422 9.146 26.0691 9.146C30.196 9.146 33.554 12.4906 33.554 16.601C33.554 20.7115 30.196 24.0561 26.0691 24.0561C21.9422 24.0561 18.5843 20.7115 18.5843 16.601ZM30.7964 26.4103H21.3419C16.3467 26.4103 12.2812 30.4595 12.2812 35.4348C12.2821 36.5792 12.7389 37.6765 13.5514 38.4858C14.3639 39.295 15.4656 39.75 16.6146 39.7508H35.5237C36.6727 39.75 37.7744 39.295 38.5869 38.4858C39.3994 37.6765 39.8562 36.5792 39.857 35.4348C39.857 30.4595 35.7916 26.4103 30.7964 26.4103Z" fill="white"/>
</svg>
