<svg width="22" height="22" viewBox="0 0 22 22" fill="none" xmlns="http://www.w3.org/2000/svg">
<path d="M11.0039 6.48828C9.22702 6.48828 7.78125 7.93405 7.78125 9.71094C7.78125 11.4878 9.22702 12.9336 11.0039 12.9336C12.7808 12.9336 14.2266 11.4878 14.2266 9.71094C14.2266 7.93405 12.7808 6.48828 11.0039 6.48828Z" fill="white"/>
<path d="M21.5594 9.09975L20.3973 8.72648C20.1627 7.75125 19.7761 6.81901 19.2518 5.96393L19.7798 4.90776C19.8404 4.78677 19.8612 4.64979 19.8395 4.51626C19.8178 4.38273 19.7547 4.25942 19.659 4.1638L17.8362 2.34098C17.6391 2.14397 17.3408 2.09675 17.0922 2.22011L16.0354 2.74884C15.2511 2.26987 14.4008 1.9073 13.4994 1.66749L12.8656 0.356254C12.8121 0.249208 12.7297 0.159186 12.6279 0.0962662C12.5261 0.0333465 12.4088 1.36984e-05 12.2891 0L9.71094 0C9.59124 1.36984e-05 9.47391 0.0333465 9.37208 0.0962662C9.27025 0.159186 9.18795 0.249208 9.13438 0.356254L8.50055 1.66753C7.5992 1.90734 6.74884 2.26991 5.96458 2.74888L4.90776 2.22015C4.6585 2.0949 4.36081 2.14337 4.1638 2.34102L2.34098 4.1638C2.2453 4.25943 2.18214 4.38274 2.16044 4.51627C2.13875 4.64979 2.15962 4.78676 2.22011 4.90776L2.74884 5.96458C2.26987 6.74884 1.9073 7.5992 1.66749 8.50055L0.356254 9.13438C0.249208 9.18795 0.159186 9.27025 0.0962662 9.37208C0.0333465 9.47391 1.36984e-05 9.59124 0 9.71094L0 12.2891C1.36984e-05 12.4088 0.0333465 12.5261 0.0962662 12.6279C0.159186 12.7297 0.249208 12.8121 0.356254 12.8656L1.66753 13.4994C1.8853 14.3133 2.20945 15.0944 2.63433 15.829L2.18492 17.1765C2.14726 17.2902 2.14191 17.412 2.16948 17.5285C2.19704 17.645 2.25643 17.7515 2.34102 17.8362L4.16384 19.659C4.24854 19.7436 4.35507 19.803 4.47155 19.8306C4.58803 19.8581 4.70988 19.8528 4.8235 19.8151L6.17109 19.3657C6.98118 19.8359 7.8378 20.1814 8.72657 20.3967L9.09984 21.5594C9.14251 21.6878 9.22451 21.7994 9.3342 21.8785C9.4439 21.9575 9.57571 22.0001 9.71094 22H12.2891C12.5666 22 12.8128 21.8225 12.9002 21.5594L13.2735 20.3967C14.1623 20.1814 15.0189 19.8358 15.829 19.3657L17.1766 19.8151C17.4088 19.8919 17.6644 19.8315 17.8362 19.659L19.6591 17.8362C19.7437 17.7515 19.803 17.6449 19.8306 17.5285C19.8582 17.412 19.8528 17.2901 19.8152 17.1765L19.3658 15.8289C19.8359 15.0188 20.1815 14.1622 20.3967 13.2734L21.5595 12.9002C21.6878 12.8575 21.7994 12.7755 21.8785 12.6658C21.9576 12.5561 22.0001 12.4243 22 12.2891V9.71094C22 9.43336 21.8225 9.18728 21.5594 9.09975ZM11 18.0898C7.09066 18.0898 3.91016 14.9093 3.91016 11C3.91016 7.09066 7.09066 3.91016 11 3.91016C14.9093 3.91016 18.0898 7.09066 18.0898 11C18.0898 14.9093 14.9093 18.0898 11 18.0898Z" fill="white"/>
<path d="M14.1365 12.9414C13.3238 13.7295 12.2205 14.2199 11.0019 14.2199C9.78338 14.2199 8.6799 13.7295 7.86723 12.9414C7.33472 13.4679 6.92609 14.1203 6.70312 14.8562C7.76583 16.0389 9.29036 16.798 11.0019 16.798C12.7132 16.798 14.2376 16.0392 15.3002 14.8568C15.0774 14.1206 14.6689 13.4679 14.1365 12.9414Z" fill="white"/>
</svg>
