<svg width="18" height="19" viewBox="0 0 18 19" fill="none" xmlns="http://www.w3.org/2000/svg">
<g clip-path="url(#clip0_443_17995)">
<path d="M17.4265 17.2064L13.1425 12.7686C14.2443 11.4664 14.8483 9.81807 14.8475 8.11513C14.8475 4.12386 11.5872 0.876587 7.57999 0.876587C3.57276 0.876587 0.3125 4.12386 0.3125 8.11513C0.3125 12.1064 3.57276 15.3537 7.57999 15.3537C9.08436 15.3537 10.518 14.9017 11.7436 14.0438L16.0602 18.5153C16.2406 18.702 16.4833 18.8049 16.7433 18.8049C16.9895 18.8049 17.223 18.7114 17.4003 18.5415C17.5812 18.3677 17.6856 18.1296 17.6905 17.8793C17.6954 17.6291 17.6005 17.3871 17.4265 17.2064ZM7.57999 2.7649C10.542 2.7649 12.9516 5.16495 12.9516 8.11513C12.9516 11.0653 10.542 13.4653 7.57999 13.4653C4.61801 13.4653 2.20837 11.0653 2.20837 8.11513C2.20837 5.16495 4.61801 2.7649 7.57999 2.7649Z" fill="#C6C6C6"/>
</g>
<defs>
<clipPath id="clip0_443_17995">
<rect width="18" height="17.9283" fill="white" transform="translate(0 0.876587)"/>
</clipPath>
</defs>
</svg>
