<svg width="24" height="24" viewBox="0 0 24 24" fill="none" xmlns="http://www.w3.org/2000/svg">
<path d="M2.97656 13.9766H1.64453C1.28828 13.9766 1 14.2648 1 14.6211V22.3555C1 22.7117 1.28828 23 1.64453 23H2.97656C4.04279 23 4.91016 22.1326 4.91016 21.0664V15.9102C4.91016 14.8439 4.04279 13.9766 2.97656 13.9766ZM15.9102 1C12.0043 1 8.82031 4.18394 8.82031 8.08984C8.82031 9.79141 9.42613 11.3511 10.4316 12.5757C11.2437 12.8078 12.0043 13.2203 12.6488 13.7875C12.77 13.8784 12.8384 13.8773 12.9711 13.8906H15.2656C16.1551 13.8906 16.9414 14.3289 17.3926 15.025C20.5895 14.3418 23 11.493 23 8.08984C23 4.18394 19.8161 1 15.9102 1ZM16.5676 11.1964H16.5547V11.957C16.5547 12.3179 16.2711 12.6016 15.9102 12.6016C15.5492 12.6016 15.2656 12.3179 15.2656 11.957V11.1964C14.8402 11.0546 14.4406 10.7839 14.0926 10.3586C13.8605 10.0878 13.8993 9.68824 14.17 9.45625C14.4406 9.22422 14.8531 9.26289 15.0723 9.53359C15.4204 9.94609 15.807 10.1008 16.1293 9.98472C16.3871 9.89449 16.5547 9.64957 16.5547 9.37891C16.5547 9.01793 16.2711 8.73438 15.9102 8.73438C14.8402 8.73438 13.9766 7.87066 13.9766 6.80078C13.9766 6.0273 14.4406 5.31832 15.1625 5.02187C15.1883 5.00898 15.227 5.00898 15.2656 4.99605V4.22266C15.2656 3.86168 15.5492 3.57812 15.9102 3.57812C16.2711 3.57812 16.5547 3.86168 16.5547 4.22266V4.99605C16.8898 5.11211 17.2121 5.27969 17.5086 5.56324C17.7664 5.80816 17.7664 6.22066 17.5215 6.47852C17.2766 6.73637 16.8641 6.73633 16.6062 6.49141C16.2968 6.19488 15.9489 6.07891 15.6652 6.20777C15.4203 6.31094 15.2656 6.54297 15.2656 6.80078C15.2656 7.16168 15.5492 7.44531 15.9102 7.44531C16.9801 7.44531 17.8438 8.30898 17.8438 9.37891C17.8438 10.191 17.3281 10.9129 16.5676 11.1964Z" fill="white"/>
<path d="M22.8105 15.2281C22.7332 15.0992 22.6301 14.996 22.5141 14.9058C22.0395 14.4906 21.2399 14.5299 20.7739 15.0347L17.8477 18.4121L17.7574 18.5151C17.3965 18.9147 16.8809 19.1339 16.3395 19.1339H11.2949C10.9339 19.1339 10.6504 18.8503 10.6504 18.4894C10.6504 18.1284 10.9339 17.8449 11.2949 17.8449H15.2695C15.9785 17.8449 16.5586 17.2648 16.5586 16.5558V16.5429C16.5457 15.8339 15.9785 15.2667 15.2695 15.2667H12.8934C12.5068 15.2667 12.0926 15.1248 11.759 14.8413C10.1864 13.462 7.8918 13.3718 6.20312 14.5449V22.4726C7.4793 22.8207 8.79414 23.0012 10.1218 23.0012H15.9141C17.332 23.0012 18.6727 22.3308 19.5234 21.1964L22.6172 17.0714C23.0686 16.4789 23.1026 15.6664 22.8105 15.2281Z" fill="white"/>
</svg>
