<svg width="52" height="52" viewBox="0 0 52 52" fill="none" xmlns="http://www.w3.org/2000/svg">
<rect width="52" height="52" rx="4" transform="matrix(-1 0 0 1 52 0)" fill="#D85F18"/>
<path d="M41.2274 20.5397C41.1283 20.234 40.9416 19.964 40.6904 19.7635C40.4393 19.5629 40.1347 19.4405 39.8146 19.4115L30.8919 18.6014L27.3655 10.3456C27.1052 9.73905 26.5128 9.34766 25.8534 9.34766C25.194 9.34766 24.6014 9.73905 24.3427 10.3456L20.8164 18.6014L11.8923 19.4115C11.238 19.4719 10.684 19.915 10.4794 20.5397C10.3797 20.8458 10.3719 21.1743 10.4571 21.4847C10.5422 21.7952 10.7166 22.0738 10.9586 22.286L17.7035 28.2003L15.7148 36.9595C15.5693 37.6035 15.8192 38.2695 16.3536 38.6558C16.6335 38.8594 16.9708 38.969 17.317 38.9687C17.6137 38.9688 17.9048 38.8882 18.1593 38.7357L25.8534 34.1352L33.5461 38.7357C33.822 38.9008 34.1404 38.9813 34.4617 38.9671C34.7829 38.9528 35.093 38.8446 35.3533 38.6558C35.8876 38.2695 36.1376 37.6035 35.9921 36.9595L34.0033 28.2004L40.7483 22.2861C40.9902 22.0738 41.1646 21.7952 41.2498 21.4848C41.335 21.1744 41.3272 20.8458 41.2274 20.5398V20.5397Z" fill="white"/>
</svg>
