<svg width="24" height="24" viewBox="0 0 24 24" fill="none" xmlns="http://www.w3.org/2000/svg">
<path d="M4.24968 20.5741C4.24968 20.7534 4.3287 20.9253 4.46936 21.052C4.61002 21.1788 4.80079 21.25 4.99971 21.25H18.5003C18.6993 21.25 18.89 21.1788 19.0307 21.052C19.1714 20.9253 19.2504 20.7534 19.2504 20.5741V18.5464H4.24968V20.5741ZM21.2057 7.1946C21.094 7.11808 20.9608 7.07121 20.8211 7.05927C20.6815 7.04733 20.5409 7.07079 20.4152 7.12701L15.1439 9.50213L12.4468 3.42576C12.3913 3.30012 12.2952 3.19238 12.171 3.11648C12.0467 3.04057 11.9001 3 11.75 3C11.5999 3 11.4533 3.04057 11.3291 3.11648C11.2049 3.19238 11.1088 3.30012 11.0532 3.42576L8.35612 9.50213L3.08488 7.12701C2.95928 7.07054 2.81863 7.04697 2.6789 7.05896C2.53918 7.07096 2.40599 7.11805 2.29449 7.19487C2.18299 7.27169 2.09764 7.37517 2.04816 7.49353C1.99867 7.61189 1.98704 7.74039 2.01458 7.86442L4.08467 17.1946H19.4154L21.4855 7.86442C21.5129 7.74047 21.5013 7.61206 21.4518 7.49378C21.4024 7.3755 21.3171 7.27208 21.2057 7.19528V7.1946ZM11.75 14.491C11.3048 14.4414 10.8986 14.237 10.6183 13.9212C10.3381 13.6055 10.2059 13.2036 10.25 12.8012C10.2059 12.3989 10.3381 11.9969 10.6183 11.6812C10.8986 11.3655 11.3048 11.161 11.75 11.1115C12.1953 11.161 12.6014 11.3655 12.8817 11.6812C13.162 11.9969 13.2942 12.3989 13.2501 12.8012C13.2942 13.2036 13.162 13.6055 12.8817 13.9212C12.6014 14.237 12.1953 14.4414 11.75 14.491Z" fill="white"/>
</svg>
