<svg width="24" height="16" viewBox="0 0 24 16" fill="none" xmlns="http://www.w3.org/2000/svg">
<path d="M23.3077 5.92455C23.6901 5.92455 24 5.61456 24 5.23225V1.53995C24 1.15759 23.69 0.847656 23.3077 0.847656H8.07694V4.30919C8.07694 4.69155 7.76695 5.00148 7.38464 5.00148C7.00233 5.00148 6.69234 4.6915 6.69234 4.30919V0.847656H0.692344C0.309984 0.847656 0 1.15759 0 1.53995V5.23225C0 5.61461 0.309984 5.92455 0.692297 5.92455C1.8375 5.92455 2.76923 6.85623 2.76923 8.00148C2.76923 9.14673 1.83755 10.0784 0.692297 10.0784C0.309984 10.0784 0 10.3884 0 10.7707V14.463C0 14.8454 0.309984 15.1553 0.692297 15.1553H6.6923V11.6938C6.6923 11.3114 7.00228 11.0015 7.38459 11.0015C7.76691 11.0015 8.07689 11.3115 8.07689 11.6938V15.1553H23.3077C23.69 15.1553 24 14.8453 24 14.463V10.7707C24 10.3884 23.69 10.0784 23.3077 10.0784C22.1625 10.0784 21.2307 9.14673 21.2307 8.00148C21.2307 6.85623 22.1625 5.92455 23.3077 5.92455ZM8.07694 8.92455C8.07694 9.3069 7.76695 9.61684 7.38464 9.61684C7.00233 9.61684 6.69234 9.30686 6.69234 8.92455V7.07837C6.69234 6.69602 7.00233 6.38608 7.38464 6.38608C7.76695 6.38608 8.07694 6.69606 8.07694 7.07837V8.92455Z" fill="white"/>
</svg>
