<svg width="20" height="20" viewBox="0 0 20 20" fill="none" xmlns="http://www.w3.org/2000/svg">
<path d="M12.0513 2.71659L12.7846 1.98325C13.6513 1.11659 15.1596 1.11659 16.0263 1.98325L16.618 2.57492C16.8314 2.78657 17.0009 3.0384 17.1165 3.31588C17.2321 3.59336 17.2916 3.89098 17.2916 4.19159C17.2916 4.49219 17.2321 4.78981 17.1165 5.06729C17.0009 5.34477 16.8314 5.5966 16.618 5.80825L15.8846 6.54159L12.0513 2.70825V2.71659ZM11.168 3.59992L3.5763 11.1916C3.33464 11.4333 3.18464 11.7499 3.15964 12.0916L2.93464 14.5333C2.90964 14.8416 3.01797 15.1416 3.23464 15.3666C3.43464 15.5666 3.69297 15.6749 3.96797 15.6749H4.05964L6.5013 15.4499C6.84297 15.4166 7.15964 15.2666 7.4013 15.0249L14.993 7.43325L11.1596 3.59992H11.168ZM18.9596 18.3333C18.9596 17.9916 18.6763 17.7083 18.3346 17.7083H1.66797C1.3263 17.7083 1.04297 17.9916 1.04297 18.3333C1.04297 18.6749 1.3263 18.9583 1.66797 18.9583H18.3346C18.6763 18.9583 18.9596 18.6749 18.9596 18.3333Z" fill="white"/>
</svg>
